<?xml version="1.0" encoding="iso-8859-1"?>
<!-- Generator: Adobe Illustrator 16.0.0, SVG Export Plug-In . SVG Version: 6.00 Build 0)  -->
<!DOCTYPE svg PUBLIC "-//W3C//DTD SVG 1.1//EN" "http://www.w3.org/Graphics/SVG/1.1/DTD/svg11.dtd">
<svg version="1.1" id="Capa_1" xmlns="http://www.w3.org/2000/svg" xmlns:xlink="http://www.w3.org/1999/xlink" x="0px" y="0px"
	 width="565.987px" height="565.986px" viewBox="0 0 565.987 565.986" style="enable-background:new 0 0 565.987 565.986;"
	 xml:space="preserve">
<g>
	<path d="M335.762,275.307l-5.137-8.713c-22.396,19.121-60.978,45.714-106.42,72.508c-16.426,9.693-32.4,18.601-47.404,26.527
		c2.645,10.74-6.999,13.506-17.008,19.41L44.684,452.931c-12.226,7.205-22.762,11.993-29.973-0.23L2.528,432.042
		c-7.208-12.229,2.075-19.127,14.301-26.345l115.115-67.885c10.019-5.904,17.106-12.992,25.215-5.485
		c14.201-9.292,29.725-18.95,46.151-28.638c45.442-26.799,87.388-47.693,114.961-58.037l-5.147-8.719
		c-4.327-7.335-1.886-16.787,5.449-21.119c7.335-4.327,16.787-1.886,21.119,5.45l22.627,38.367
		c4.326,7.335,1.891,16.792-5.444,21.119C349.541,285.077,340.089,282.642,335.762,275.307z M290.575,182.679
		c7.246,12.276,21.604,17.603,34.737,14.085l55.407,93.958c-9.428,9.794-11.721,24.938-4.48,37.22l2.104,3.564
		c8.701,14.766,27.739,19.671,42.505,10.977l62.399-36.801c14.76-8.707,19.677-27.739,10.965-42.504l-2.104-3.559
		c-7.24-12.282-21.604-17.614-34.737-14.097l-55.414-93.958c9.439-9.794,11.728-24.938,4.48-37.22l-2.098-3.564
		c-8.713-14.765-27.739-19.677-42.511-10.977l-62.394,36.801c-14.766,8.706-19.68,27.739-10.977,42.504L290.575,182.679z
		 M540.287,412.235h-11.934c-5.568-9.96-16.208-16.704-28.425-16.704h-94.041c-12.224,0-22.856,6.744-28.425,16.704h-6.797
		c-14.191,0-25.7,11.508-25.7,25.7v6.85c0,14.198,11.509,25.7,25.7,25.7h169.621c14.191,0,25.7-11.502,25.7-25.7v-6.85
		C565.987,423.743,554.478,412.235,540.287,412.235z"/>
</g>
<g>
</g>
<g>
</g>
<g>
</g>
<g>
</g>
<g>
</g>
<g>
</g>
<g>
</g>
<g>
</g>
<g>
</g>
<g>
</g>
<g>
</g>
<g>
</g>
<g>
</g>
<g>
</g>
<g>
</g>
</svg>
